<?xml version="1.0" encoding="UTF-8"?>
<svg xmlns="http://www.w3.org/2000/svg" height="328" width="328" class="pyqrcode"><path transform="scale(8)" stroke="#000" class="pyqrline" d="M4 4.5h7m1 0h2m2 0h4m1 0h1m3 0h4m1 0h7m-33 1h1m5 0h1m1 0h1m1 0h2m3 0h1m2 0h2m3 0h1m2 0h1m5 0h1m-33 1h1m1 0h3m1 0h1m5 0h1m1 0h1m1 0h3m1 0h1m1 0h1m1 0h1m1 0h1m1 0h3m1 0h1m-33 1h1m1 0h3m1 0h1m1 0h2m1 0h6m1 0h3m1 0h1m1 0h1m1 0h1m1 0h3m1 0h1m-33 1h1m1 0h3m1 0h1m1 0h4m3 0h2m1 0h4m2 0h1m1 0h1m1 0h3m1 0h1m-33 1h1m5 0h1m1 0h1m1 0h2m1 0h1m3 0h5m2 0h1m1 0h1m5 0h1m-33 1h7m1 0h1m1 0h1m1 0h1m1 0h1m1 0h1m1 0h1m1 0h1m1 0h1m1 0h1m1 0h7m-24 1h1m1 0h2m1 0h1m5 0h2m1 0h1m-21 1h1m2 0h1m2 0h1m1 0h4m1 0h1m4 0h1m1 0h2m2 0h3m1 0h2m-33 1h5m2 0h1m1 0h1m1 0h1m2 0h1m3 0h1m1 0h1m3 0h1m1 0h1m3 0h3m-31 1h1m2 0h2m2 0h2m7 0h2m1 0h2m1 0h2m3 0h2m1 0h1m-31 1h4m2 0h3m1 0h1m1 0h1m1 0h1m1 0h3m3 0h3m-27 1h8m3 0h1m1 0h1m1 0h1m1 0h1m1 0h1m4 0h3m1 0h1m2 0h2m-30 1h3m3 0h2m1 0h1m1 0h1m5 0h1m1 0h1m2 0h2m3 0h1m1 0h1m-27 1h2m2 0h1m2 0h3m1 0h1m1 0h1m1 0h1m1 0h3m3 0h1m1 0h1m-32 1h6m3 0h2m1 0h1m1 0h2m1 0h1m2 0h3m5 0h1m1 0h3m-33 1h1m1 0h1m2 0h4m3 0h1m3 0h3m1 0h2m4 0h1m1 0h1m1 0h2m-32 1h1m2 0h2m4 0h2m3 0h1m1 0h3m2 0h1m1 0h1m1 0h1m4 0h3m-32 1h1m1 0h1m2 0h2m3 0h1m2 0h3m1 0h5m3 0h1m1 0h1m1 0h1m1 0h1m-33 1h2m1 0h2m2 0h5m3 0h1m2 0h1m1 0h2m3 0h1m1 0h2m3 0h1m-33 1h2m1 0h1m1 0h2m2 0h2m1 0h2m1 0h1m2 0h1m1 0h2m1 0h2m6 0h2m-31 1h1m2 0h1m1 0h3m1 0h2m1 0h5m4 0h2m4 0h4m-33 1h2m1 0h2m1 0h3m1 0h2m2 0h2m1 0h3m1 0h6m2 0h2m1 0h1m-32 1h1m1 0h2m2 0h1m3 0h1m1 0h1m3 0h1m3 0h6m2 0h1m-30 1h1m1 0h2m1 0h3m1 0h2m1 0h3m1 0h3m2 0h1m1 0h7m1 0h1m-24 1h3m2 0h1m3 0h1m1 0h1m1 0h2m1 0h1m3 0h1m1 0h1m1 0h1m-33 1h7m3 0h2m3 0h2m1 0h1m1 0h1m1 0h1m1 0h1m1 0h1m1 0h1m2 0h1m-32 1h1m5 0h1m3 0h1m5 0h1m1 0h5m1 0h1m3 0h1m3 0h1m-33 1h1m1 0h3m1 0h1m2 0h3m1 0h5m2 0h1m3 0h6m-30 1h1m1 0h3m1 0h1m1 0h2m1 0h1m1 0h6m1 0h1m1 0h3m1 0h1m1 0h1m3 0h1m-33 1h1m1 0h3m1 0h1m2 0h2m3 0h1m3 0h1m2 0h1m2 0h2m1 0h4m1 0h1m-33 1h1m5 0h1m2 0h1m1 0h6m1 0h3m1 0h4m1 0h3m-30 1h7m5 0h2m2 0h2m6 0h2m1 0h2m1 0h2"/></svg>
